<svg width="19.589844" height="19.588867" viewBox="0 0 19.5898 19.5889" fill="none" xmlns="http://www.w3.org/2000/svg" xmlns:xlink="http://www.w3.org/1999/xlink">
	<desc>
			Created with Pixso.
	</desc>
	<defs/>
	<path id="Vector" d="M9.79 0C4.38 0 0 4.38 0 9.79C0 13.8 2.41 17.24 5.86 18.76C5.83 18.08 5.86 17.25 6.03 16.51C6.22 15.72 7.29 11.17 7.29 11.17C7.29 11.17 6.98 10.55 6.98 9.63C6.98 8.17 7.82 7.09 8.86 7.09C9.76 7.09 10.18 7.76 10.18 8.56C10.18 9.46 9.61 10.79 9.32 12.03C9.08 13.07 9.84 13.92 10.87 13.92C12.72 13.92 13.97 11.54 13.97 8.71C13.97 6.57 12.52 4.96 9.9 4.96C6.93 4.96 5.07 7.18 5.07 9.65C5.07 10.5 5.33 11.11 5.72 11.57C5.9 11.79 5.92 11.87 5.86 12.12C5.81 12.3 5.71 12.73 5.66 12.9C5.59 13.15 5.39 13.24 5.17 13.15C3.8 12.59 3.16 11.09 3.16 9.41C3.16 6.63 5.51 3.29 10.16 3.29C13.9 3.29 16.36 6 16.36 8.9C16.36 12.74 14.23 15.61 11.08 15.61C10.02 15.61 9.03 15.04 8.68 14.39C8.68 14.39 8.12 16.65 8 17.08C7.79 17.84 7.38 18.59 7.01 19.18C7.91 19.45 8.85 19.58 9.79 19.58C15.2 19.58 19.58 15.2 19.58 9.79C19.58 4.38 15.2 0 9.79 0Z" fill="#274C5B" fill-opacity="1.000000" fill-rule="nonzero"/>
</svg>
